<mxfile host="Electron" agent="Mozilla/5.0 (Windows NT 10.0; Win64; x64) AppleWebKit/537.36 (KHTML, like Gecko) draw.io/26.0.16 Chrome/132.0.6834.196 Electron/34.2.0 Safari/537.36" version="26.0.16">
  <diagram name="Page-1" id="-JRjd5JPyz_IwhVoC2mc">
    <mxGraphModel dx="1434" dy="884" grid="1" gridSize="10" guides="1" tooltips="1" connect="1" arrows="1" fold="1" page="1" pageScale="1" pageWidth="850" pageHeight="1100" math="0" shadow="0">
      <root>
        <mxCell id="0" />
        <mxCell id="1" parent="0" />
        <mxCell id="WwejdNNeYX41qym5pzjh-6" style="edgeStyle=orthogonalEdgeStyle;rounded=0;orthogonalLoop=1;jettySize=auto;html=1;" edge="1" parent="1" source="WwejdNNeYX41qym5pzjh-1">
          <mxGeometry relative="1" as="geometry">
            <mxPoint x="530" y="340" as="targetPoint" />
          </mxGeometry>
        </mxCell>
        <mxCell id="WwejdNNeYX41qym5pzjh-1" value="Start" style="strokeWidth=2;html=1;shape=mxgraph.flowchart.start_1;whiteSpace=wrap;fillColor=#ffe6cc;strokeColor=#d79b00;fontStyle=1;fontSize=16;" vertex="1" parent="1">
          <mxGeometry x="480" y="230" width="100" height="60" as="geometry" />
        </mxCell>
        <mxCell id="WwejdNNeYX41qym5pzjh-7" style="edgeStyle=orthogonalEdgeStyle;rounded=0;orthogonalLoop=1;jettySize=auto;html=1;entryX=0.5;entryY=0;entryDx=0;entryDy=0;" edge="1" parent="1" target="WwejdNNeYX41qym5pzjh-3">
          <mxGeometry relative="1" as="geometry">
            <mxPoint x="530" y="400" as="sourcePoint" />
          </mxGeometry>
        </mxCell>
        <mxCell id="WwejdNNeYX41qym5pzjh-2" value="input a &amp;amp; b" style="shape=parallelogram;html=1;strokeWidth=2;perimeter=parallelogramPerimeter;whiteSpace=wrap;rounded=1;arcSize=12;size=0.23;fillColor=#ffe6cc;strokeColor=#d79b00;fontStyle=0;fontSize=16;" vertex="1" parent="1">
          <mxGeometry x="425" y="340" width="190" height="60" as="geometry" />
        </mxCell>
        <mxCell id="WwejdNNeYX41qym5pzjh-8" style="edgeStyle=orthogonalEdgeStyle;rounded=0;orthogonalLoop=1;jettySize=auto;html=1;entryX=0.5;entryY=0;entryDx=0;entryDy=0;" edge="1" parent="1" source="WwejdNNeYX41qym5pzjh-3">
          <mxGeometry relative="1" as="geometry">
            <mxPoint x="530" y="610" as="targetPoint" />
          </mxGeometry>
        </mxCell>
        <mxCell id="WwejdNNeYX41qym5pzjh-3" value="sum = a + b" style="rounded=1;whiteSpace=wrap;html=1;absoluteArcSize=1;arcSize=14;strokeWidth=2;fillColor=#ffe6cc;strokeColor=#d79b00;fontStyle=3;fontSize=18;" vertex="1" parent="1">
          <mxGeometry x="445" y="460" width="170" height="100" as="geometry" />
        </mxCell>
        <mxCell id="WwejdNNeYX41qym5pzjh-9" style="edgeStyle=orthogonalEdgeStyle;rounded=0;orthogonalLoop=1;jettySize=auto;html=1;" edge="1" parent="1" target="WwejdNNeYX41qym5pzjh-5">
          <mxGeometry relative="1" as="geometry">
            <mxPoint x="530" y="670" as="sourcePoint" />
          </mxGeometry>
        </mxCell>
        <mxCell id="WwejdNNeYX41qym5pzjh-4" value="print sum" style="shape=parallelogram;html=1;strokeWidth=2;perimeter=parallelogramPerimeter;whiteSpace=wrap;rounded=1;arcSize=12;size=0.23;fillColor=#ffe6cc;strokeColor=#d79b00;fontSize=16;" vertex="1" parent="1">
          <mxGeometry x="425" y="610" width="190" height="60" as="geometry" />
        </mxCell>
        <mxCell id="WwejdNNeYX41qym5pzjh-5" value="Exit" style="strokeWidth=2;html=1;shape=mxgraph.flowchart.start_1;whiteSpace=wrap;fillColor=#ffe6cc;strokeColor=#d79b00;fontStyle=1;fontSize=16;" vertex="1" parent="1">
          <mxGeometry x="480" y="720" width="100" height="60" as="geometry" />
        </mxCell>
        <mxCell id="WwejdNNeYX41qym5pzjh-10" value="&lt;font style=&quot;color: rgb(51, 51, 255);&quot;&gt;Sum&lt;/font&gt; of&amp;nbsp; 2 Numbers" style="text;html=1;align=center;verticalAlign=middle;resizable=0;points=[];autosize=1;strokeColor=none;fillColor=none;fontStyle=4;fontSize=24;" vertex="1" parent="1">
          <mxGeometry x="80" y="80" width="230" height="40" as="geometry" />
        </mxCell>
        <mxCell id="WwejdNNeYX41qym5pzjh-11" value="&lt;font style=&quot;color: rgb(255, 181, 112); font-size: 24px;&quot;&gt;&lt;b style=&quot;&quot;&gt;Input&lt;/b&gt;&lt;/font&gt;&lt;div&gt;&lt;br&gt;&lt;/div&gt;&lt;div&gt;&lt;font style=&quot;font-size: 20px;&quot;&gt;first number, a&lt;/font&gt;&lt;/div&gt;&lt;div&gt;&lt;font style=&quot;font-size: 20px;&quot;&gt;second number, b&lt;/font&gt;&lt;/div&gt;" style="text;html=1;align=left;verticalAlign=middle;resizable=0;points=[];autosize=1;strokeColor=none;fillColor=none;fontSize=18;" vertex="1" parent="1">
          <mxGeometry x="80" y="280" width="180" height="110" as="geometry" />
        </mxCell>
        <mxCell id="WwejdNNeYX41qym5pzjh-12" value="&lt;font style=&quot;font-size: 22px; color: rgb(255, 181, 112);&quot;&gt;&lt;b&gt;Output&lt;/b&gt;&lt;/font&gt;&lt;div&gt;&lt;br&gt;&lt;div&gt;sum of a &amp;amp; b&lt;/div&gt;&lt;/div&gt;" style="text;html=1;align=left;verticalAlign=middle;resizable=0;points=[];autosize=1;strokeColor=none;fillColor=none;fontSize=20;" vertex="1" parent="1">
          <mxGeometry x="80" y="600" width="140" height="90" as="geometry" />
        </mxCell>
      </root>
    </mxGraphModel>
  </diagram>
</mxfile>
